              <svg
                className="fill-current"
                width="22"
                height="22"
                viewBox="0 0 22 22"
                fill="none"
                xmlns="http://www.w3.org/2000/svg"
              >
                <path
                  d="M11 9.62499C8.42188 9.62499 6.35938 7.59687 6.35938 5.12187C6.35938 2.64687 8.42188 0.618744 11 0.618744C13.5781 0.618744 15.6406 2.64687 15.6406 5.12187C15.6406 7.59687 13.5781 9.62499 11 9.62499ZM11 2.16562C9.28125 2.16562 7.90625 3.50624 7.90625 5.12187C7.90625 6.73749 9.28125 8.07812 11 8.07812C12.7188 8.07812 14.0938 6.73749 14.0938 5.12187C14.0938 3.50624 12.7188 2.16562 11 2.16562Z"
                  fill=""
                />
                <path
                  d="M17.7719 21.4156H4.2281C3.5406 21.4156 2.9906 20.8656 2.9906 20.1781V17.0844C2.9906 13.7156 5.7406 10.9656 9.10935 10.9656H12.925C16.2937 10.9656 19.0437 13.7156 19.0437 17.0844V20.1781C19.0094 20.8312 18.4594 21.4156 17.7719 21.4156ZM4.53748 19.8687H17.4969V17.0844C17.4969 14.575 15.4344 12.5125 12.925 12.5125H9.07498C6.5656 12.5125 4.5031 14.575 4.5031 17.0844V19.8687H4.53748Z"
                  fill=""
                />
              </svg>
