<svg xmlns="http://www.w3.org/2000/svg" width="19" height="16" fill="none"><path fill="#FBBF24" d="M1.505 16h15.997c1.118 0 1.84-1.098 1.333-2.027L10.837.771c-.552-1.028-2.13-1.028-2.682 0L.157 13.973C-.334 14.9.387 16 1.505 16Zm9.254-3.07c0 .686-.537 1.213-1.303 1.213-.767 0-1.303-.527-1.303-1.213v-.028c0-.686.536-1.214 1.303-1.214.766 0 1.303.528 1.303 1.213v.029ZM8.752 4.01h1.503c.412 0 .658.328.612.743l-.66 5.366c-.046.386-.321.627-.706.627a.677.677 0 0 1-.705-.627l-.66-5.366c-.042-.415.204-.742.616-.742Z"/></svg>