<svg xmlns="http://www.w3.org/2000/svg" width="18" height="19" fill="none"><g><path d="M12.713.558H9.535c-.732 0-1.35.62-1.35 1.35V3.85c0 .337.28.619.618.619.338 0 .647-.282.647-.619V1.88c0-.056.028-.084.085-.084h3.178a1.2 1.2 0 0 1 1.21 1.21V15.07a1.2 1.2 0 0 1-1.21 1.21H9.535c-.057 0-.085-.029-.085-.085v-1.94a.63.63 0 0 0-.647-.62.606.606 0 0 0-.618.62v1.94c0 .731.618 1.35 1.35 1.35h3.178a2.479 2.479 0 0 0 2.475-2.475V3.033A2.479 2.479 0 0 0 12.713.558Z"/><path d="M10.435 8.602 7.622 5.733a.628.628 0 0 0-.9 0 .628.628 0 0 0 0 .9l1.744 1.772H3.46a.624.624 0 0 0-.62.619c0 .337.282.619.62.619h5.034l-1.772 1.8a.628.628 0 0 0 0 .9.639.639 0 0 0 .45.168.56.56 0 0 0 .45-.196l2.813-2.87c.253-.196.253-.59 0-.843Z"/></g></svg>