<svg xmlns="http://www.w3.org/2000/svg" width="18" height="18" fill="#fff"><path d="M6.103.956H2.531C1.575.956.788 1.744.788 2.7v3.572c0 .956.787 1.744 1.743 1.744h3.572c.956 0 1.744-.788 1.744-1.744V2.728A1.724 1.724 0 0 0 6.103.956ZM6.61 6.3a.504.504 0 0 1-.506.506H2.531a.504.504 0 0 1-.506-.506V2.728c0-.281.225-.506.506-.506h3.572c.281 0 .506.225.506.506V6.3ZM15.469.956h-3.572c-.956 0-1.744.788-1.744 1.744v3.572c0 .956.788 1.744 1.744 1.744h3.572c.956 0 1.744-.788 1.744-1.744V2.728c0-.984-.788-1.772-1.744-1.772Zm.506 5.344a.504.504 0 0 1-.506.506h-3.572a.504.504 0 0 1-.506-.506V2.728c0-.281.225-.506.506-.506h3.572c.281 0 .506.225.506.506V6.3ZM6.103 9.928H2.531c-.956 0-1.743.788-1.743 1.744v3.572c0 .956.787 1.744 1.743 1.744h3.572c.956 0 1.744-.788 1.744-1.744V11.7a1.724 1.724 0 0 0-1.744-1.772Zm.506 5.344a.504.504 0 0 1-.506.506H2.531a.504.504 0 0 1-.506-.506V11.7c0-.281.225-.506.506-.506h3.572c.281 0 .506.225.506.506v3.572ZM15.469 9.928h-3.572c-.956 0-1.744.788-1.744 1.744v3.572c0 .956.788 1.744 1.744 1.744h3.572c.956 0 1.744-.788 1.744-1.744V11.7c0-.984-.788-1.772-1.744-1.772Zm.506 5.344a.504.504 0 0 1-.506.506h-3.572a.504.504 0 0 1-.506-.506V11.7c0-.281.225-.506.506-.506h3.572c.281 0 .506.225.506.506v3.572Z"/></svg>