<svg xmlns="http://www.w3.org/2000/svg" width="18" height="18" fill="#fff"><path d="M1.434 7.51h.844c.169 0 .281-.113.31-.198l.393-.984h2.925l.366.984c.056.17.197.197.31.197h.871c.31-.028.422-.253.31-.478L5.427 1.434c-.056-.168-.112-.197-.281-.197H3.88c-.112 0-.281.057-.31.197L1.154 7.087c-.113.197.056.422.281.422ZM4.472 2.98l.843 2.194H3.6l.872-2.194ZM10.125 2.503h6.75a.654.654 0 0 0 .647-.647.636.636 0 0 0-.647-.647h-6.75a.654.654 0 0 0-.647.647c0 .366.281.647.647.647ZM16.875 6.216h-6.75a.654.654 0 0 0-.647.646c0 .366.281.647.647.647h6.75a.654.654 0 0 0 .647-.647.654.654 0 0 0-.647-.646ZM16.875 11.166H1.772a.654.654 0 0 0-.647.646c0 .366.281.647.647.647h15.103a.654.654 0 0 0 .647-.646.654.654 0 0 0-.647-.647ZM16.875 16.116H1.772a.654.654 0 0 0-.647.646c0 .366.281.647.647.647h15.103a.654.654 0 0 0 .647-.646.654.654 0 0 0-.647-.647Z"/></svg>