<svg xmlns="http://www.w3.org/2000/svg" width="20" height="20" fill="#fff"><path d="M18.076.85H16.07a1.044 1.044 0 0 0-1.029.897l-.562 4.062h-1.081V3.403A.912.912 0 0 0 12.5 2.5h-2.419a.937.937 0 0 0-.9-.825H6.454a.937.937 0 0 0-.913.984v.666h-2.39a.897.897 0 0 0-.91.878v1.61a.966.966 0 0 0-.734.362.978.978 0 0 0-.181.831.274.274 0 0 0 0 .047l1.912 5.885a.956.956 0 0 0 .938.709h9.212a1.45 1.45 0 0 0 1.435-1.25L16.25 2.1h1.822a.625.625 0 1 0 0-1.25h.003Zm-5.938 4.944h-2.043V3.75h2.053l-.01 2.044ZM6.791 2.916h2.054V5.79H6.79V2.917Zm-3.3 1.65h2.05v1.228h-2.05V4.566Zm10.094 7.659a.197.197 0 0 1-.197.172H4.376L2.654 7.05h11.65l-.719 5.175ZM5.312 15.113a2.019 2.019 0 1 0 2.003 2.018 2.01 2.01 0 0 0-2.003-2.018Zm0 2.787a.769.769 0 1 1 .753-.769.763.763 0 0 1-.753.769ZM12.95 15.113a2.019 2.019 0 1 0-.03 4.037 2.019 2.019 0 0 0 .03-4.037Zm0 2.787a.769.769 0 1 1 .754-.769.762.762 0 0 1-.754.769Z"/></svg>