<svg xmlns="http://www.w3.org/2000/svg" width="13" height="13" fill="none"><path fill="#fff" stroke="#fff" d="m6.492 7.656 4.614 4.609a.829.829 0 0 0 .568.235.812.812 0 0 0 .569-1.389h-.001L7.645 6.504l4.614-4.592a.812.812 0 0 0 0-1.154.813.813 0 0 0-1.153 0L6.492 5.349 1.895.741 1.894.74A.813.813 0 0 0 .74.74a.812.812 0 0 0 0 1.153l5.752 5.763Zm0 0-4.597 4.608h-.001a.829.829 0 0 1-.568.236.829.829 0 0 1-.568-.236l.354-.353-.354.354a.812.812 0 0 1 0-1.153v-.001l4.58-4.608L.74 1.893l5.752 5.763Z"/></svg>