<svg xmlns="http://www.w3.org/2000/svg" width="14" height="14" fill="#fff"><path d="M4.765 1.426a.583.583 0 0 1 .485-.26h3.5c.195 0 .377.098.485.26l.994 1.49h2.021A1.75 1.75 0 0 1 14 4.667v6.417a1.75 1.75 0 0 1-1.75 1.75H1.75A1.75 1.75 0 0 1 0 11.083V4.667a1.75 1.75 0 0 1 1.75-1.75h2.021l.994-1.49Zm.797.907-.993 1.49a.583.583 0 0 1-.486.26H1.75a.583.583 0 0 0-.583.584v6.416a.583.583 0 0 0 .583.584h10.5a.583.583 0 0 0 .583-.584V4.667a.583.583 0 0 0-.583-.584H9.917a.583.583 0 0 1-.486-.26l-.993-1.49H5.562Z"/><path d="M7 5.833a1.75 1.75 0 1 0 0 3.5 1.75 1.75 0 0 0 0-3.5Zm-2.917 1.75a2.917 2.917 0 1 1 5.834 0 2.917 2.917 0 0 1-5.834 0Z"/></svg>