<svg xmlns="http://www.w3.org/2000/svg" width="18" height="19" fill="white"><g><path d="M17.072 7.308a1.468 1.468 0 0 0-1.097-.478h-.084c-.14 0-.253-.084-.281-.197-.028-.112-.085-.197-.113-.309-.056-.113 0-.225.085-.31l.056-.056c.31-.28.478-.675.478-1.097 0-.421-.14-.815-.45-1.125l-1.097-1.125a1.562 1.562 0 0 0-2.222-.028l-.084.057c-.085.084-.225.112-.366.056-.112-.056-.225-.113-.366-.14-.14-.057-.225-.17-.225-.282v-.14c0-.873-.703-1.576-1.575-1.576H8.156c-.421 0-.815.17-1.096.45-.31.31-.45.703-.45 1.097v.113c0 .112-.085.225-.197.281-.057.028-.085.028-.14.056a.3.3 0 0 1-.338-.056l-.057-.084a1.468 1.468 0 0 0-1.097-.479c-.421 0-.815.141-1.125.45L2.531 3.483a1.562 1.562 0 0 0-.028 2.222l.057.085c.084.084.112.225.056.309-.056.112-.085.197-.14.31-.057.112-.141.168-.282.168H2.11c-.422 0-.816.14-1.125.45-.31.281-.479.675-.479 1.097L.478 9.699c-.028.872.675 1.575 1.547 1.603h.085c.14 0 .253.085.28.197a.879.879 0 0 1 .141.281.317.317 0 0 1-.084.31l-.056.056c-.31.281-.478.675-.478 1.097 0 .422.14.815.45 1.125l1.097 1.125c.59.618 1.603.647 2.221.028l.085-.056c.084-.085.225-.113.365-.057.113.057.225.113.366.141.14.056.225.169.225.281v.113c0 .872.703 1.575 1.575 1.575h1.575c.872 0 1.575-.703 1.575-1.575v-.113c0-.112.085-.225.197-.281.056-.028.084-.028.14-.056.141-.056.254-.028.338.056l.056.084c.282.31.675.479 1.097.479.422 0 .816-.141 1.125-.45l1.125-1.097c.619-.591.647-1.604.028-2.222l-.056-.085c-.084-.084-.112-.225-.056-.309.056-.113.084-.197.14-.31a.31.31 0 0 1 .282-.168h.112c.844 0 1.547-.675 1.575-1.547l.028-1.575c-.056-.338-.225-.76-.506-1.04Zm-.844 2.644c0 .169-.14.31-.309.31h-.113c-.646 0-1.237.393-1.462.956-.028.084-.084.168-.112.253a1.557 1.557 0 0 0 .309 1.716l.056.084a.306.306 0 0 1 0 .422l-1.125 1.097c-.084.084-.169.084-.225.084-.056 0-.14 0-.225-.084l-.056-.085a1.498 1.498 0 0 0-1.744-.337l-.112.056c-.62.253-1.013.816-1.013 1.463v.112c0 .169-.14.31-.31.31H8.214a.312.312 0 0 1-.31-.31v-.113c0-.646-.393-1.237-1.012-1.462-.085-.028-.197-.084-.281-.112a1.459 1.459 0 0 0-.675-.141c-.394 0-.788.14-1.097.45l-.057.028a.306.306 0 0 1-.421 0l-1.097-1.125c-.085-.084-.085-.169-.085-.225 0-.056 0-.14.085-.225l.056-.056c.478-.45.619-1.153.366-1.716a.997.997 0 0 0-.113-.253c-.225-.59-.787-1.012-1.434-1.012h-.085a.312.312 0 0 1-.309-.31l.028-1.575c0-.112.056-.169.084-.225a.34.34 0 0 1 .225-.084h.085a1.563 1.563 0 0 0 1.49-.957c.029-.084.085-.168.113-.253a1.556 1.556 0 0 0-.31-1.715l-.056-.085a.306.306 0 0 1 0-.422l1.125-1.096c.085-.085.17-.085.225-.085.057 0 .141 0 .225.085l.057.084a1.55 1.55 0 0 0 1.743.366l.113-.057c.619-.253 1.012-.815 1.012-1.462v-.113c0-.112.057-.168.085-.225.028-.056.112-.084.225-.084h1.575c.168 0 .31.14.31.31v.112c0 .647.393 1.237 1.012 1.462.084.028.197.085.28.113.591.281 1.295.169 1.773-.281l.084-.057a.306.306 0 0 1 .422 0l1.097 1.125a.284.284 0 0 1 .084.225.45.45 0 0 1-.084.225l-.056.057a1.496 1.496 0 0 0-.422 1.687c.028.084.056.169.112.253.225.59.788 1.013 1.435 1.013h.084c.113 0 .169.056.225.084.056.028.084.113.084.225v1.575Z"/><path d="M9 5.227a3.829 3.829 0 0 0-3.825 3.825A3.83 3.83 0 0 0 9 12.877a3.829 3.829 0 0 0 3.825-3.825A3.829 3.829 0 0 0 9 5.227Zm0 6.384a2.569 2.569 0 0 1-2.56-2.559A2.569 2.569 0 0 1 9 6.492a2.569 2.569 0 0 1 2.56 2.56A2.569 2.569 0 0 1 9 11.612Z"/></g></svg>