<svg xmlns="http://www.w3.org/2000/svg" width="18" height="19" fill="none"><path d="M15.75.558H2.25c-.956 0-1.744.788-1.744 1.744v13.5c0 .956.788 1.772 1.772 1.772h13.5c.957 0 1.772-.788 1.772-1.772v-13.5a1.82 1.82 0 0 0-1.8-1.744ZM6.694 10.6V6.465h4.612v4.106H6.694v.028Zm4.612 1.266v4.443H6.694v-4.443h4.612Zm-9.534-5.4h3.684v4.106H1.772V6.465Zm10.8 0h3.684v4.106h-3.684V6.465ZM2.25 1.824h13.5c.281 0 .506.225.506.506v2.897H1.772V2.302c0-.281.197-.478.478-.478Zm-.478 13.978v-3.937h3.684v4.443H2.25c-.281 0-.478-.225-.478-.506Zm13.978.506h-3.178v-4.443h3.684v3.937a.504.504 0 0 1-.506.506Z"/></svg>