<svg xmlns="http://www.w3.org/2000/svg" width="20" height="20" fill="gray"><g opacity=".8"><path d="M1.565 3.232A2.5 2.5 0 0 1 3.333 2.5h5.833a.833.833 0 0 1 0 1.667H3.333A.833.833 0 0 0 2.5 5v11.667a.833.833 0 0 0 .833.833H15a.833.833 0 0 0 .833-.833v-5.834a.833.833 0 0 1 1.667 0v5.834a2.5 2.5 0 0 1-2.5 2.5H3.333a2.5 2.5 0 0 1-2.5-2.5V5a2.5 2.5 0 0 1 .732-1.768Z"/><path d="M16.666 2.399a.935.935 0 0 0-.66.274l-7.754 7.753-.44 1.762 1.762-.44 7.753-7.754a.935.935 0 0 0-.66-1.595Zm-1.839-.905a2.601 2.601 0 0 1 3.679 3.679l-7.917 7.916a.833.833 0 0 1-.387.22l-3.334.833a.833.833 0 0 1-1.01-1.01l.833-3.334a.833.833 0 0 1 .22-.387l7.916-7.917Z"/></g></svg>