<?xml version="1.0" standalone="no"?>
<!DOCTYPE svg PUBLIC "-//W3C//DTD SVG 20010904//EN"
 "http://www.w3.org/TR/2001/REC-SVG-20010904/DTD/svg10.dtd">
<svg version="1.0" xmlns="http://www.w3.org/2000/svg"
 width="512.000000pt" height="512.000000pt" viewBox="0 0 512.000000 512.000000"
 preserveAspectRatio="xMidYMid meet">
<metadata>
Created by potrace 1.11, written by Peter Selinger 2001-2013
</metadata>
<g transform="translate(0.000000,512.000000) scale(0.100000,-0.100000)"
fill="#000000" stroke="none">
<path d="M4337 4864 c-1 -1 -47 -4 -103 -8 -55 -4 -111 -9 -125 -11 -13 -3
-42 -8 -64 -11 -22 -3 -56 -10 -75 -14 -19 -5 -49 -12 -67 -15 -70 -12 -254
-78 -358 -129 -111 -55 -265 -152 -265 -168 0 -4 -4 -8 -10 -8 -12 0 -46 -29
-124 -106 -247 -246 -457 -608 -546 -944 -57 -213 -77 -459 -56 -667 5 -56 3
-80 -9 -110 -19 -45 -75 -201 -80 -223 -22 -104 -44 -136 -46 -68 -2 44 -3 60
-13 113 -3 17 -9 48 -12 70 -10 64 -62 232 -94 301 -16 35 -27 64 -25 64 8 0
-97 175 -143 240 -55 76 -230 260 -249 260 -7 0 -13 4 -13 9 0 13 -144 108
-242 161 -126 67 -338 145 -457 167 -14 2 -28 6 -32 8 -4 3 -24 7 -45 11 -72
10 -97 15 -103 18 -5 3 -50 9 -176 22 -153 16 -451 18 -624 5 -11 -1 -13 -21
-8 -113 3 -62 9 -126 12 -143 3 -16 8 -46 11 -65 13 -74 17 -93 48 -220 28
-109 123 -339 168 -402 11 -16 17 -28 14 -28 -7 0 71 -115 122 -180 82 -104
308 -310 341 -310 6 0 11 -4 11 -10 0 -5 5 -10 12 -10 6 0 19 -6 27 -14 16
-14 233 -126 245 -126 3 0 28 -9 54 -21 81 -36 219 -80 297 -95 22 -4 47 -9
55 -10 8 -2 31 -6 50 -9 207 -29 350 -26 545 11 30 6 155 41 181 51 11 4 13
-3 9 -33 -4 -22 -8 -46 -10 -54 -2 -8 -7 -37 -10 -65 -3 -27 -8 -63 -10 -80
-31 -208 -37 -774 -10 -914 5 -27 -10 -27 -77 0 -75 30 -209 33 -303 7 -183
-50 -341 -163 -555 -399 -174 -191 -225 -239 -379 -353 -44 -33 -78 -62 -76
-66 3 -5 786 -11 2087 -13 406 -1 738 -6 738 -10 0 -5 4 -6 8 -3 10 6 96 8
245 5 59 -1 110 0 112 3 8 7 -105 117 -148 145 -32 20 -123 45 -243 67 -35 7
-128 49 -153 71 -64 54 -116 109 -166 179 -11 15 -27 36 -35 46 -8 9 -33 39
-54 66 -87 108 -203 181 -299 189 -38 3 -70 -2 -117 -19 -36 -13 -92 -34 -125
-46 -60 -22 -116 -23 -203 -4 -39 8 -39 8 -47 94 -4 36 -8 79 -10 95 -34 260
-39 752 -10 950 2 17 7 50 10 75 12 91 15 106 30 195 11 62 53 227 82 318 l15
48 82 -7 c147 -14 408 -8 516 11 14 2 43 7 65 10 22 3 58 11 80 17 22 6 49 13
60 15 11 2 56 15 100 29 476 154 835 477 1081 974 23 47 52 110 64 140 12 30
26 64 31 75 16 37 94 269 103 310 1 6 10 46 20 90 10 44 21 87 24 95 3 8 6 22
7 30 0 8 4 29 8 45 4 17 9 44 12 60 3 17 7 40 9 51 5 24 11 64 22 139 3 28 8
58 10 68 3 16 -33 40 -54 35 -4 -1 -18 2 -32 5 -39 10 -145 25 -230 32 -25 2
-45 4 -45 5 0 2 -255 6 -258 4z"/>
</g>
</svg>
