<svg xmlns="http://www.w3.org/2000/svg" height="88.494mm" width="90.201mm" version="1.1" viewBox="0 0 90.200684 88.494423"><g transform="translate(-54.685 -100.05)"><path d="m136.5 100.05c-5.4908-0.0104-12.184 0.84029-15.61 2.1513-12.38 4.737-20.755 17.298-21.56 32.34-0.20992 3.9189-0.83151 7.9692-1.3813 9.0005-0.96999 1.8194-1.0003 1.8261-1.0294 0.21601-0.0614-3.394-3.217-10.012-6.5324-13.699-3.8332-4.2635-8.2821-7.1366-13.569-8.7623-4.706-1.4472-15.568-2.5745-19.216-1.9947l-2.9109 0.46251 0.43201 4.6256c1.498 16.041 13.412 27.523 29.766 28.685 3.0939 0.21977 6.8908 0.0482 8.4372-0.38085 2.7737-0.76957 2.8052-0.75426 2.3332 1.1265-0.26319 1.0486-0.51602 5.6957-0.56173 10.326l-0.0832 8.4196-3.1104-0.35037c-4.179-0.47062-9.8282 2.617-14.243 7.784-1.8226 2.1333-4.4836 4.6752-5.9133 5.6488-1.4297 0.97362-2.6015 2.0233-2.6045 2.3327-0.003 0.30939 13.723 0.56275 30.502 0.56275h30.507l-1.7126-1.8231c-0.9948-1.0589-3.0136-2.0425-4.8168-2.3472-2.5519-0.43113-3.919-1.3972-7.6827-5.4291-4.9423-5.2944-5.3195-5.4198-12.79-4.2468l-3.1145 0.48886-0.54415-6.5319c-0.58915-7.0727-0.0888-14.836 1.3767-21.363l0.92604-4.1248 7.1107-0.48783c7.9524-0.54526 9.8426-1.0264 15.708-3.9987 5.633-2.8545 11.18-8.7858 14.499-15.503 2.9235-5.9168 5.779-15.718 5.779-19.837 0-2.3492-0.1552-2.4826-3.4664-2.9792-1.3975-0.20957-3.094-0.30912-4.9242-0.31212z" fill="#4caf50"/></g></svg>
